<svg width="85" height="43" viewBox="0 0 85 43" fill="none" xmlns="http://www.w3.org/2000/svg">
<path d="M5.73 37.13L0.6 36.17C1.56 32.29 2.56 28.78 3.6 25.64C4.66 22.5 5.75 19.81 6.87 17.57C7.99 15.33 9.13 13.61 10.29 12.41C11.47 11.19 12.65 10.58 13.83 10.58C16.21 10.58 18.4 12.79 20.4 17.21C22.4 21.61 24.1 27.99 25.5 36.35L20.19 37.07C19.95 35.75 19.69 34.4 19.41 33.02C19.13 31.62 18.84 30.26 18.54 28.94C18.06 28.92 17.54 28.91 16.98 28.91C16 28.91 14.96 28.93 13.86 28.97C12.78 29.01 11.71 29.08 10.65 29.18C9.61 29.26 8.64 29.35 7.74 29.45C7.36 30.73 6.99 32.03 6.63 33.35C6.29 34.65 5.99 35.91 5.73 37.13ZM11.25 19.61C10.81 20.55 10.22 22.07 9.48 24.17C10.34 24.07 11.25 24 12.21 23.96C13.17 23.9 14.11 23.87 15.03 23.87C15.81 23.87 16.56 23.89 17.28 23.93C17 22.91 16.73 22 16.47 21.2C16.23 20.4 16.01 19.77 15.81 19.31C15.39 18.23 15.02 17.47 14.7 17.03C14.38 16.57 14.05 16.34 13.71 16.34C13.35 16.34 12.99 16.58 12.63 17.06C12.27 17.52 11.81 18.37 11.25 19.61ZM33.3349 37.37C32.2349 37.37 31.3249 37.13 30.6049 36.65C29.9049 36.19 29.3449 35.55 28.9249 34.73C28.5249 33.91 28.2249 32.97 28.0249 31.91C27.8449 30.85 27.7249 29.72 27.6649 28.52C27.6249 27.3 27.6049 26.08 27.6049 24.86C27.6049 23.8 27.6349 22.64 27.6949 21.38C27.7549 20.1 27.8249 18.81 27.9049 17.51C28.0049 16.19 28.1049 14.95 28.2049 13.79C28.3249 12.63 28.4349 11.62 28.5349 10.76L33.9649 10.82C33.8049 11.84 33.6549 13 33.5149 14.3C33.3749 15.58 33.2549 16.88 33.1549 18.2C33.0749 19.52 33.0049 20.74 32.9449 21.86C32.9049 22.98 32.8849 23.87 32.8849 24.53C32.8849 26.35 32.9149 27.78 32.9749 28.82C33.0549 29.86 33.1649 30.6 33.3049 31.04C33.4649 31.46 33.6749 31.67 33.9349 31.67C34.2749 31.67 34.6449 31.46 35.0449 31.04C35.4449 30.6 35.8349 30.11 36.2149 29.57L38.7649 34.64C38.1449 35.32 37.4049 35.94 36.5449 36.5C35.6849 37.08 34.6149 37.37 33.3349 37.37ZM41.5523 37.19C41.4723 36.23 41.4023 35 41.3423 33.5C41.3023 32 41.2823 30.37 41.2823 28.61C41.2823 27.05 41.2923 25.44 41.3123 23.78C41.3523 22.12 41.4023 20.49 41.4623 18.89C41.5423 17.27 41.6223 15.76 41.7023 14.36C41.8023 12.94 41.9123 11.7 42.0323 10.64L47.2523 11C46.9723 13.04 46.7523 15.11 46.5923 17.21C46.4523 19.29 46.3623 21.41 46.3223 23.57C47.4423 22.79 48.7423 21.97 50.2223 21.11C51.7223 20.23 53.5223 19.24 55.6223 18.14L58.4423 22.85C56.2823 23.53 54.3723 24.31 52.7123 25.19C51.0523 26.05 49.6923 26.92 48.6323 27.8C48.4323 27.94 48.3023 28.04 48.2423 28.1C48.1823 28.16 48.1523 28.2 48.1523 28.22C48.1523 28.34 48.4823 28.56 49.1423 28.88C50.0223 29.34 50.9323 29.79 51.8723 30.23C52.8123 30.67 53.8623 31.12 55.0223 31.58C56.1823 32.02 57.5123 32.49 59.0123 32.99L56.9423 37.43C55.1223 36.89 53.3023 36.21 51.4823 35.39C49.6623 34.57 48.0123 33.74 46.5323 32.9C46.5523 33.58 46.5823 34.27 46.6223 34.97C46.6823 35.67 46.7323 36.37 46.7723 37.07L41.5523 37.19ZM60.1781 15.62C60.1781 15.44 60.1681 15.26 60.1481 15.08C60.1481 14.88 60.1481 14.66 60.1481 14.42C60.1481 13.78 60.1681 13.1 60.2081 12.38C60.2481 11.66 60.2881 11.05 60.3281 10.55L65.6681 10.64C65.6081 11.32 65.5381 12.09 65.4581 12.95C65.3981 13.81 65.3581 14.7 65.3381 15.62H60.1781ZM60.0581 37.1C59.9981 35.86 59.9581 34.54 59.9381 33.14C59.9181 31.72 59.9081 30.3 59.9081 28.88C59.9081 27.02 59.9281 25.21 59.9681 23.45C60.0081 21.69 60.0581 20.09 60.1181 18.65L65.2781 18.62C65.1981 19.54 65.1481 20.68 65.1281 22.04C65.1081 23.38 65.0981 24.79 65.0981 26.27C65.0981 27.73 65.1081 29.17 65.1281 30.59C65.1481 32.01 65.1681 33.3 65.1881 34.46C65.2281 35.6 65.2581 36.48 65.2781 37.1H60.0581ZM77.1783 37.37C75.9783 37.37 75.0283 37.11 74.3283 36.59C73.6283 36.09 73.1183 35.39 72.7983 34.49C72.4783 33.59 72.2683 32.56 72.1683 31.4C72.0883 30.24 72.0483 29.02 72.0483 27.74C72.0483 26.42 72.0983 25.05 72.1983 23.63C70.8583 23.81 69.5683 24.04 68.3283 24.32L67.3983 19.61C69.0583 19.17 70.8283 18.85 72.7083 18.65C72.8483 17.63 72.9983 16.56 73.1583 15.44C73.3183 14.3 73.4983 13.1 73.6983 11.84L78.8583 12.29C78.6183 13.33 78.4083 14.37 78.2283 15.41C78.0483 16.43 77.8883 17.42 77.7483 18.38C78.8683 18.38 79.9183 18.41 80.8983 18.47C81.8983 18.51 82.8183 18.59 83.6583 18.71L83.0583 23.42C82.3583 23.34 81.6283 23.29 80.8683 23.27C80.1283 23.23 79.3783 23.21 78.6183 23.21C78.1583 23.21 77.6983 23.22 77.2383 23.24C77.1183 24.7 77.0383 25.95 76.9983 26.99C76.9783 28.03 76.9683 28.77 76.9683 29.21C76.9683 30.31 77.0283 31.1 77.1483 31.58C77.2883 32.06 77.5083 32.3 77.8083 32.3C78.1483 32.3 78.5283 32.19 78.9483 31.97C79.3683 31.73 79.7783 31.41 80.1783 31.01C80.5983 30.61 80.9483 30.18 81.2283 29.72L83.5383 34.55C81.5583 36.43 79.4383 37.37 77.1783 37.37Z" fill="#160442"/>
<circle cx="63" cy="10" r="7" fill="#642DFB"/>
</svg>
